HIERARCHY
ROOT Hips
{
    OFFSET 0.000000 0.000000 0.000000
    CHANNELS 6 Xposition Yposition Zposition Zrotation Xrotation Yrotation
    JOINT Spine
    {
        OFFSET -0.000000 14.517291 0.000000
        CHANNELS 3 Zrotation Xrotation Yrotation
        JOINT Spine1
        {
            OFFSET -0.000000 37.558300 0.000000
            CHANNELS 3 Zrotation Xrotation Yrotation
            JOINT Neck
            {
                OFFSET -0.000000 37.404057 3.400369
                CHANNELS 3 Zrotation Xrotation Yrotation
                JOINT Head
                {
                    OFFSET -0.000000 24.785618 -3.540803
                    CHANNELS 3 Zrotation Xrotation Yrotation
                    End Site
                    {
                        OFFSET -0.000000 35.408028 0.000000
                    }
                }
            }
            JOINT LeftShoulder
            {
                OFFSET 6.992933 33.973492 -0.192664
                CHANNELS 3 Zrotation Xrotation Yrotation
                JOINT LeftArm
                {
                    OFFSET 21.527611 0.000000 0.000000
                    CHANNELS 3 Zrotation Xrotation Yrotation
                    JOINT LeftForeArm
                    {
                        OFFSET 56.353916 0.000000 0.000000
                        CHANNELS 3 Zrotation Xrotation Yrotation
                        JOINT LeftHand
                        {
                            OFFSET 47.774071 0.000000 0.000000
                            CHANNELS 3 Zrotation Xrotation Yrotation
                            End Site
                            {
                                OFFSET 26.556021 0.000000 0.000000
                            }
                        }
                    }
                }
            }
            JOINT RightShoulder
            {
                OFFSET -7.065357 33.973492 -0.192664
                CHANNELS 3 Zrotation Xrotation Yrotation
                JOINT RightArm
                {
                    OFFSET -21.527611 0.000000 0.000000
                    CHANNELS 3 Zrotation Xrotation Yrotation
                    JOINT RightForeArm
                    {
                        OFFSET -56.353916 0.000000 0.000000
                        CHANNELS 3 Zrotation Xrotation Yrotation
                        JOINT RightHand
                        {
                            OFFSET -47.774071 0.000000 0.000000
                            CHANNELS 3 Zrotation Xrotation Yrotation
                            End Site
                            {
                                OFFSET -26.556021 0.000000 0.000000
                            }
                        }
                    }
                }
            }
        }
    }
    JOINT LeftUpLeg
    {
        OFFSET 17.704014 0.000000 0.000000
        CHANNELS 3 Zrotation Xrotation Yrotation
        JOINT LeftLeg
        {
            OFFSET -0.000000 -81.181816 0.000000
            CHANNELS 3 Zrotation Xrotation Yrotation
            JOINT LeftFoot
            {
                OFFSET -0.000000 -62.821102 0.000000
                CHANNELS 3 Zrotation Xrotation Yrotation
                JOINT LeftToeBase
                {
                    OFFSET -0.000000 -11.507608 26.556021
                    CHANNELS 3 Zrotation Xrotation Yrotation
                    End Site
                    {
                        OFFSET -0.000000 0.000000 7.081605
                    }
                }
            }
        }
    }
    JOINT RightUpLeg
    {
        OFFSET -17.704014 0.000000 0.000000
        CHANNELS 3 Zrotation Xrotation Yrotation
        JOINT RightLeg
        {
            OFFSET -0.000000 -81.181816 0.000000
            CHANNELS 3 Zrotation Xrotation Yrotation
            JOINT RightFoot
            {
                OFFSET -0.000000 -62.821102 0.000000
                CHANNELS 3 Zrotation Xrotation Yrotation
                JOINT RightToeBase
                {
                    OFFSET -0.000000 -11.507608 26.556021
                    CHANNELS 3 Zrotation Xrotation Yrotation
                    End Site
                    {
                        OFFSET -0.000000 0.000000 7.081605
                    }
                }
            }
        }
    }
}
MOTION
Frames:    13
Frame Time:    0.008333
38.036156    160.163620    -100.528427    -1.828377    -0.331418    10.914950    -4.359385    -3.586847    -15.310836    -8.788122    1.208344    -4.949476    30.516514    15.000335    12.129556    -10.617007    -4.869769    10.317975    14.223660    7.634945    -16.889074    -37.982269    3.044713    -49.787968    -5.947804    -27.518797    -111.737328    -7.477431    -34.193768    -15.463206    -12.578201    7.267257    -23.206841    27.464804    23.749939    -10.254332    29.860769    20.405901    -5.949091    5.176045    22.297192    9.775803    5.862706    6.213634    9.378384    -8.715644    19.618410    -13.894437    5.242594    -22.537542    46.267914    0.000000    0.000000    0.000000    -9.097877    -30.421169    1.654904    11.489313    26.589811    -12.804922    3.289357    17.339399    -9.133694    0.000000    0.000000    0.000000    
38.045647    160.162811    -100.556358    -1.832469    -0.331329    10.860382    -4.367335    -3.603211    -15.321246    -8.790619    1.226810    -4.951192    30.544178    15.001353    12.132225    -10.660187    -4.865386    10.313218    14.202075    7.631126    -16.905922    -38.022404    3.042511    -49.775635    -6.007883    -27.443361    -111.748604    -7.413930    -34.209190    -15.408563    -12.565424    7.287469    -23.235537    27.509661    23.738953    -10.227040    29.875172    20.397608    -5.959721    5.236845    22.296230    9.753584    5.856662    6.205906    9.405101    -8.723717    19.632971    -13.880972    5.265655    -22.533661    46.280716    0.000000    0.000000    0.000000    -9.049980    -30.421606    1.702313    11.457806    26.545729    -12.788035    3.268812    17.359840    -9.154389    0.000000    0.000000    0.000000    
38.058781    160.159546    -100.587997    -1.831152    -0.324621    10.812183    -4.368930    -3.621466    -15.330194    -8.799571    1.239111    -4.952865    30.532644    15.006222    12.135716    -10.656236    -4.890372    10.316874    14.179044    7.637531    -16.904673    -38.045036    3.067051    -49.772968    -6.025506    -27.421526    -111.743340    -7.395953    -34.212490    -15.392789    -12.555634    7.313305    -23.269655    27.546110    23.700890    -10.179783    29.892979    20.361151    -5.957141    5.255324    22.261732    9.746485    5.842459    6.185237    9.416293    -8.734609    19.661182    -13.879981    5.287243    -22.548677    46.323578    0.000000    0.000000    0.000000    -9.014255    -30.430563    1.753345    11.425563    26.512135    -12.774241    3.264833    17.368225    -9.165557    0.000000    0.000000    0.000000    
38.068420    160.156570    -100.615219    -1.843478    -0.328927    10.768961    -4.363761    -3.632071    -15.326750    -8.792585    1.255179    -4.950474    30.518589    15.012224    12.127926    -10.665132    -4.926826    10.305717    14.159018    7.645875    -16.912573    -38.086334    3.083561    -49.778500    -6.049584    -27.379246    -111.741440    -7.356968    -34.208115    -15.374056    -12.552430    7.321667    -23.295752    27.633429    23.719463    -10.188143    29.832100    20.318750    -5.899919    5.257191    22.203537    9.766072    5.848728    6.172106    9.420304    -8.751454    19.689816    -13.857001    5.310180    -22.556763    46.343849    0.000000    0.000000    0.000000    -8.968511    -30.424604    1.809617    11.408636    26.463839    -12.773824    3.245528    17.388897    -9.180641    0.000000    0.000000    0.000000    
38.081455    160.150330    -100.641228    -1.850128    -0.337359    10.738911    -4.356347    -3.637626    -15.324138    -8.795778    1.270468    -4.948389    30.528120    15.001213    12.128098    -10.686782    -4.942371    10.297118    14.143435    7.664551    -16.913111    -38.114220    3.127779    -49.797195    -6.044754    -27.393387    -111.736221    -7.379920    -34.212288    -15.369608    -12.537711    7.317312    -23.303753    27.723242    23.754314    -10.216398    29.768671    20.279659    -5.827083    5.223839    22.142393    9.796641    5.850846    6.162254    9.412873    -8.768659    19.717295    -13.825960    5.332603    -22.569424    46.355568    0.000000    0.000000    0.000000    -8.939229    -30.409369    1.859756    11.393645    26.421038    -12.760012    3.239960    17.390827    -9.185345    0.000000    0.000000    0.000000    
38.095646    160.140732    -100.669075    -1.855822    -0.342710    10.708812    -4.345648    -3.644670    -15.307447    -8.796789    1.280646    -4.942048    30.516436    15.003128    12.125896    -10.684981    -4.982769    10.292169    14.127579    7.691694    -16.923557    -38.129318    3.168144    -49.813442    -6.016446    -27.419748    -111.728401    -7.396077    -34.200138    -15.348791    -12.523733    7.318664    -23.324793    27.774744    23.759689    -10.212740    29.751589    20.263138    -5.764235    5.171128    22.104040    9.761799    5.849336    6.147077    9.415977    -8.776243    19.753157    -13.807137    5.355833    -22.589508    46.363186    0.000000    0.000000    0.000000    -8.907469    -30.407270    1.875992    11.361237    26.397671    -12.742097    3.215570    17.403860    -9.185820    0.000000    0.000000    0.000000    
38.112282    160.132431    -100.692604    -1.860467    -0.359903    10.688833    -4.329970    -3.640166    -15.300548    -8.807240    1.286030    -4.939427    30.526588    15.038986    12.123549    -10.717615    -5.056799    10.287372    14.121191    7.736070    -16.919474    -38.154373    3.186717    -49.834370    -6.020082    -27.407150    -111.736977    -7.354492    -34.200672    -15.310888    -12.502084    7.301098    -23.314947    27.831398    23.793613    -10.208931    29.749649    20.274080    -5.749801    5.123493    22.107864    9.773015    5.852306    6.149669    9.401730    -8.794827    19.774019    -13.784415    5.380932    -22.608463    46.376404    0.000000    0.000000    0.000000    -8.885945    -30.389980    1.893718    11.339281    26.375071    -12.716413    3.230780    17.407030    -9.205051    0.000000    0.000000    0.000000    
38.126839    160.123322    -100.717987    -1.862957    -0.374360    10.675711    -4.320368    -3.629018    -15.281768    -8.806076    1.280800    -4.933867    30.522966    15.065932    12.119281    -10.724986    -5.128090    10.282999    14.109407    7.774324    -16.931677    -38.157837    3.235750    -49.848877    -6.015817    -27.432789    -111.757660    -7.308995    -34.229259    -15.275502    -12.486148    7.280950    -23.300848    27.867659    23.809547    -10.194335    29.790438    20.304293    -5.772279    5.097945    22.144505    9.802909    5.851120    6.149177    9.402514    -8.802727    19.794043    -13.771329    5.407096    -22.621235    46.384117    0.000000    0.000000    0.000000    -8.874208    -30.375347    1.928837    11.341156    26.350182    -12.722931    3.230711    17.404903    -9.224272    0.000000    0.000000    0.000000    
38.140125    160.112427    -100.738762    -1.864635    -0.397928    10.663351    -4.304646    -3.609590    -15.256917    -8.813842    1.275223    -4.926367    30.549416    15.099047    12.114688    -10.770036    -5.201427    10.272561    14.108779    7.808429    -16.937475    -38.165962    3.277239    -49.864990    -5.995926    -27.452934    -111.762917    -7.313786    -34.223122    -15.286749    -12.451992    7.260087    -23.288811    27.896704    23.982384    -10.327443    29.717762    20.350271    -5.365551    5.268332    22.091692    9.618032    5.856221    6.163769    9.401106    -8.816759    19.808426    -13.761355    5.438406    -22.634327    46.384422    0.000000    0.000000    0.000000    -8.861692    -30.350239    1.963906    11.340747    26.327019    -12.723023    3.229443    17.395561    -9.234354    0.000000    0.000000    0.000000    
38.159771    160.104553    -100.755264    -1.859176    -0.417852    10.666748    -4.290376    -3.607136    -15.240294    -8.822965    1.283734    -4.920288    30.539125    15.112540    12.114044    -10.784021    -5.254851    10.268393    14.091396    7.850241    -16.944233    -38.156666    3.301518    -49.872898    -5.992910    -27.472298    -111.774765    -7.324134    -34.236645    -15.306999    -12.432245    7.252990    -23.273190    27.960663    24.061464    -10.322187    29.677076    20.342693    -5.307143    5.333516    22.071589    9.585193    5.845919    6.182323    9.398864    -8.808121    19.804132    -13.759946    5.440301    -22.642712    46.373001    0.000000    0.000000    0.000000    -8.870237    -30.321157    1.981715    11.347658    26.302156    -12.742734    3.214219    17.382618    -9.231068    0.000000    0.000000    0.000000    
38.179428    160.098450    -100.775314    -1.848152    -0.434675    10.672884    -4.285772    -3.594425    -15.211552    -8.818904    1.279558    -4.911353    30.512453    15.104950    12.108209    -10.773849    -5.292587    10.258770    14.069973    7.870992    -16.966358    -38.155342    3.324351    -49.863102    -5.991944    -27.472883    -111.786171    -7.308734    -34.239670    -15.306081    -12.402360    7.250405    -23.267921    28.010384    24.113846    -10.308719    29.617069    20.312023    -5.252622    5.355308    22.029144    9.638094    5.829127    6.196765    9.403636    -8.799606    19.805809    -13.773039    5.445291    -22.655024    46.370846    0.000000    0.000000    0.000000    -8.890092    -30.291870    1.987830    11.351531    26.276222    -12.736866    3.225283    17.365913    -9.242465    0.000000    0.000000    0.000000    
38.190517    160.093231    -100.796143    -1.840353    -0.440909    10.687101    -4.278858    -3.594039    -15.183336    -8.813757    1.272223    -4.902700    30.486221    15.077605    12.097872    -10.773746    -5.290703    10.240381    14.041893    7.892896    -16.985550    -38.137245    3.352960    -49.850689    -5.992598    -27.493021    -111.799126    -7.314216    -34.260120    -15.311009    -12.395170    7.257500    -23.264156    28.079891    24.141235    -10.282344    29.550484    20.265905    -5.233122    5.334657    21.977980    9.726084    5.820220    6.195045    9.408869    -8.791379    19.810507    -13.788260    5.454817    -22.658009    46.364162    0.000000    0.000000    0.000000    -8.908080    -30.276014    1.977429    11.349409    26.257008    -12.761987    3.237112    17.360596    -9.231421    0.000000    0.000000    0.000000    
38.201199    160.091919    -100.813744    -1.835809    -0.447370    10.711647    -4.269112    -3.594644    -15.150192    -8.802549    1.265461    -4.892457    30.442713    15.053906    12.080648    -10.755088    -5.310312    10.217630    14.008717    7.898265    -17.014135    -38.128727    3.383820    -49.823029    -5.999410    -27.496378    -111.817291    -7.315950    -34.274895    -15.297317    -12.386438    7.266710    -23.281878    28.101986    24.030680    -10.083284    29.618784    20.159969    -5.577221    5.212297    21.957558    9.873237    5.815477    6.193424    9.398889    -8.790826    19.806976    -13.791680    5.449905    -22.662939    46.354012    0.000000    0.000000    0.000000    -8.926216    -30.255508    1.941038    11.332629    26.239359    -12.742468    3.241558    17.354153    -9.234720    0.000000    0.000000    0.000000    
